<?xml version="1.0" encoding="utf-8"?>
<!-- Generator: Adobe Illustrator 28.2.0, SVG Export Plug-In . SVG Version: 6.00 Build 0)  -->
<svg version="1.1" id="Livello_1" xmlns="http://www.w3.org/2000/svg" xmlns:xlink="http://www.w3.org/1999/xlink" x="0px" y="0px"
	 viewBox="0 0 1090.4 944.6" style="enable-background:new 0 0 1090.4 944.6;" xml:space="preserve">
<style type="text/css">
	.st0{fill:#E5E029;}
	.st1{fill:#00AB2E;}
	.st2{fill:#F5DA00;}
	.st3{fill:#164194;}
</style>
<g>
	<path class="st0" d="M542.7,247.8C542.7,247.9,542.7,247.9,542.7,247.8C542.7,247.9,542.7,247.9,542.7,247.8
		C542.7,247.9,542.7,247.8,542.7,247.8z"/>
	<g>
		<g>
			<path class="st1" d="M672.1,204.1c-20.5,3.1-40.1,8.9-58.6,16.9c-1.3-1.2-2.7-2.3-4-3.5c-4.4-3.6-9.4-6.3-14.8-7.8
				c0,0-0.1,0-0.1,0c-15-4.1-15.7-5.4-6.2-18.3c11.4-15.6,18.5-32.6,15.3-52.2c-6.4-39.8-33.7-60.9-68.9-73.4
				c-27.4-9.7-54.5,0-71.7,23.4c-3.3,4.4-6.4,9-10.1,14.4c-2.3,3.4-7.4,3.3-9.6-0.2c-11.1-17.7-22.6-32.3-42.2-38.2
				c-22.2-6.6-42.4-1.1-61.4,10.3c-20.1,12-36.2,27.7-43.9,50.7c-9.5,28.2,1.5,51,18.3,73.2c2.1,2.8,0.7,6.8-2.6,7.6
				c-7.2,1.9-13.3,3.4-19.3,5.4c-19.4,6.3-33.3,18-38.7,38.7c0,0-0.2,2.9-0.5,6.6c-0.9,10.9-0.2,22,2.3,32.6c0.5,2.1,1,4.3,1.6,6.4
				c11.6,40.9,42,57.5,82.8,46.8c15.1-4,16.2-3.1,14.5,12.8c-2.1,19.2,0.2,37.5,12.8,52.8c22.9,28.1,52.9,34.7,85.4,30.8
				c-4.1,8.3-8.2,16.4-12.4,24.2c-0.8,1.5-1.6,3-2.3,4.5c-47.4-0.3-97.8-27.6-101.6-29.8c0,0-4.3-2.8-4.9-3.2
				c-31.2-19.1-58.2-46.1-77.8-80c-14-24.2-22.9-49.8-27.3-75.8c-0.3-0.9-0.6-3-1-5.9l0-0.2l-0.1-1.3c-0.9-8.1-1.8-21.2-2.5-29.9
				c-0.1-1.8-0.3-3.5-0.4-5.3c-0.1-3-0.2-5.9-0.1-8.9c0.1-1.4,0.1-2.8,0.2-4.1c2.4-29.6,10.4-57.6,23-82.9
				c14.3-28.5,34.4-53.6,58.7-73.7c0,0,0.1,0,0.1,0C348,32.7,398.5,16,448.1,15.7c77.6,0.6,152.5,41.4,196,116.5
				c-36.2-65-103.5-110.4-181.8-116.1c73.5,4.3,143.3,44.7,184.6,116.1c0.4,0.7,0.8,1.3,1.2,2C659.6,155.7,667.9,179.2,672.1,204.1z
				"/>
		</g>
		<g>
			<path class="st1" d="M554.5,211.4c-27.2,24-43.4,56.4-46.3,90.6c-0.5,5.8-2.1,11.5-5.1,16.5c-1.9,3.3-3.8,6.6-5.6,10
				c-19-7.9-39.4-11.9-59.8-11.9c-22.7,0-45.4,4.9-66.2,14.7c1.8-8.7,2.6-17.4,2.6-26.1c0-36.4-15.2-71.8-42.9-98.2
				c24.2-2.8,46.9-11.2,66.3-23.9c19.4-12.8,35.6-29.9,46.8-50.2C465.2,174.5,506.4,203.9,554.5,211.4z"/>
		</g>
	</g>
	<g>
		<path class="st2" d="M938.6,492.8c-1.7,7.4-3.7,14.7-6.1,21.9c-53.1-0.2-107.7-30.4-140.5-83.3c-41.6-67.1-34.8-149.2,12.1-197.4
			c39.2,16.3,73.9,43.6,99.1,80c5.5,7.9,10.5,16.3,15.1,25c0,0.1,0.1,0.1,0.1,0.2c1.6,3,3.1,6.1,4.5,9.3c4.2,9.2,7.8,18.5,10.7,28
			C945.8,415.2,947,455.2,938.6,492.8z"/>
		<path class="st2" d="M917.4,550.4c-6.4,12.1-13.9,23.6-22.5,34.5c-10.7,13.6-23.1,26-36.9,37c0,0.1-0.1,0.1-0.1,0.1
			c-1.2,1-2.5,2-3.8,2.9c-2,1.6-4.1,3.1-6.2,4.5c-1.5,1.1-3,2.1-4.6,3.1c-1.5,1-3.1,2-4.6,3c-1.5,1-3.1,2-4.7,2.9
			c-6.3,3.8-12.8,7.3-19.5,10.5c-0.9,0.5-1.8,0.9-2.7,1.3c-0.6,0.3-1.2,0.5-1.8,0.8c-0.1,0.1-0.2,0.1-0.3,0.1
			c-0.4,0.2-0.7,0.3-1.1,0.5c0,0-0.1,0-0.1,0.1c-1,0.4-2,0.8-3.1,1.3c-0.2,0.1-0.4,0.2-0.5,0.2c-0.1,0-0.1,0.1-0.2,0.1
			c-1.5,0.6-3.1,1.3-4.7,1.9c-1,0.4-2,0.8-3.1,1.2c-1,0.4-2,0.8-3.1,1.1c-1.1,0.4-2.1,0.8-3.2,1.2c-0.2,0.1-0.3,0.1-0.5,0.2
			c-0.9,0.3-1.8,0.6-2.7,0.9c-0.2,0.1-0.5,0.2-0.8,0.2c-0.9,0.3-1.9,0.6-2.8,0.9c-0.2,0.1-0.5,0.2-0.7,0.2c-0.8,0.2-1.6,0.5-2.5,0.7
			c-0.6,0.2-1.3,0.4-2,0.6c-0.4,0.1-0.8,0.2-1.2,0.3c-0.7,0.2-1.4,0.4-2,0.5c-0.9,0.2-1.7,0.5-2.6,0.7c-0.3,0.1-0.7,0.2-1,0.3
			c-0.2,0.1-0.5,0.1-0.7,0.2c-0.2,0.1-0.5,0.1-0.8,0.2c-0.1,0-0.2,0.1-0.2,0.1c-1.8,0.5-3.6,0.9-5.4,1.3c-0.2,0.1-0.4,0.1-0.5,0.1
			c-1.4,0.3-2.8,0.6-4.3,0.9c-0.1,0-0.3,0.1-0.4,0.1c-0.3,0.1-0.7,0.1-1,0.2c-0.2,0.1-0.5,0.1-0.8,0.1c-1.2,0.2-2.3,0.4-3.5,0.6
			c-0.1,0-0.2,0.1-0.4,0.1c-1.3,0.2-2.6,0.4-3.8,0.6c-0.3,0.1-0.6,0.1-0.9,0.1c-0.1,0-0.2,0.1-0.3,0.1c-0.3,0.1-0.5,0.1-0.8,0.1
			c-3.3,0.5-6.6,0.9-10,1.2c-1.8,0.2-3.6,0.3-5.4,0.5c-1.5,0.1-2.9,0.2-4.4,0.2c-18.2,0.9-36.4-0.3-54.1-3.7
			c52.6-63,55.9-161.7,2.3-239.3c-30.4-44-74.3-74.9-123.9-86.9c-12.1-2.9-24.2-4.7-36.1-5.2c0.2-0.3,0.4-0.7,0.6-1
			c22.6-41.4,58.2-76.1,104.3-97.3c2.6-1.2,5.2-2.4,7.8-3.4c3.1-1.3,6.2-2.5,9.4-3.7c0.8-0.3,1.7-0.6,2.6-0.9
			c13.4-4.8,27.1-8.2,40.7-10.2c3.5-0.6,7.1-1,10.6-1.4c25-2.7,49.9-1.1,73.9,4.3c-47.6,60.8-52.3,152.9-5.3,228.6
			C797.7,509.7,857.1,545.1,917.4,550.4z"/>
		<path class="st2" d="M786.8,659.9c-0.5,0.2-1,0.4-1.5,0.5c-0.4,0.1-0.9,0.2-1.3,0.4C784.9,660.5,785.9,660.2,786.8,659.9z"/>
		<path class="st2" d="M808.6,651.6c-1.2,0.5-2.4,1-3.6,1.5c0.2-0.1,0.3-0.2,0.5-0.2C806.5,652.5,807.5,652,808.6,651.6z"/>
		<path class="st2" d="M738.1,670.1c1.2-0.1,2.4-0.2,3.6-0.4c-1.4,0.2-2.9,0.3-4.3,0.5C737.7,670.2,737.9,670.1,738.1,670.1z"/>
		<path class="st2" d="M786.8,659.9c-0.5,0.2-1,0.4-1.5,0.5c-0.4,0.1-0.9,0.2-1.3,0.4C784.9,660.5,785.9,660.2,786.8,659.9z"/>
		<path class="st2" d="M800.3,655.1c-1.1,0.4-2.2,0.9-3.3,1.3c1-0.4,2-0.8,3.1-1.2C800.2,655.1,800.3,655.1,800.3,655.1z"/>
		<path class="st2" d="M834,638.4c-6.2,3.8-12.8,7.3-19.5,10.5C821.2,645.7,827.7,642.2,834,638.4z"/>
		<path class="st2" d="M676.1,540c-0.8-24.5-7-49.4-18.8-73.4c-1.2-2.3-2.3-4.6-3.5-6.9c-2.2-3.8-4.6-7.5-7.1-11.2
			c-25.3-36.6-61.7-62.3-102.5-72.2c-13.9-3.4-27.8-4.8-41.4-4.2c-2.2,5.7-4.5,11.3-6.9,17c-2.5,5.9-5,11.9-7.6,17.7c0,0,0,0,0,0
			c-3,6.8-6,13.5-9.1,20.1c0,0,0,0,0,0.1c-2.7,5.7-5.4,11.4-8.2,17c-5.1,10.5-10.3,20.6-15.5,30.4c-2,3.9-4.1,7.8-6.2,11.6
			c-28.1,52.1-55.1,93.4-68.1,112.7c-5.2,7.6-11.8,14.1-19.5,19.2L250,690.5c-4.7,3.1-6.1,9.4-3.1,14.2l19.5,31
			c3.2,5,9.9,6.3,14.7,2.9c22-15.6,79.9-56.3,117.5-79.2c21.9-13.3,137.7-10.5,198.7-8c0,0,0.1,0,0.1,0c10.6,0.5,19.5,0.9,26,1.2
			c0,0,0,0,0,0c7.4,0.4,11.7,0.6,11.7,0.6c-0.1-0.4-0.2-0.8-0.4-1.2c0.4,0.2,0.6,0.3,0.6,0.3c15.6-17.4,26.8-37.3,33.4-58.6
			C674.3,576.5,676.7,558.3,676.1,540z M447.3,603.9l45.6-76.7v0l4.9-8.3v0l2.6-4.4l0.1,11.6v0c1,15.8,5.9,29.9,11.6,41.3
			c0,0.1,0.1,0.1,0.1,0.2c9.2,18.5,20.5,29.8,20.5,29.8L447.3,603.9z"/>
	</g>
	<path class="st3" d="M942.5,536.1c6-14.5,10.6-29.6,13.6-45.3c4.2-0.8,11.1-1.5,14.4-2.4c124.6-31.9,20.2-87.8-18.4-106.1
		c-6.4-23.4-16.2-45.4-29-65.3C988.6,346.3,1214.5,460.8,942.5,536.1z"/>
	<path class="st3" d="M438.7,468.2c-0.1,0.2-26.6,48.5-38.4,68C206.6,493.7,88.6,412.9,88.6,412.9s-233.9-143.2,115.8-198.2
		c0.7-0.1-1.3,16.5,0,33.6c1.2,16.5,5.6,33.6,5.6,33.6S-55.7,310,150.6,386.8c50.4,18.7,184.9,51.9,185.5,52
		C370.3,456.9,403.3,467.6,438.7,468.2z"/>
</g>
<g>
	<path class="st3" d="M95.4,844.7V693.3h65c22.9,0,39.6,4.4,50.2,13.2c10.6,8.8,15.9,22.8,15.9,42c0,17.8-4.8,30.9-14.3,39.1
		S187.7,800,167,800h-17.1v44.7L95.4,844.7L95.4,844.7z M150.1,735.4v25.2h8.5c5.2,0,9.1-1.1,11.9-3.3s4.1-5.3,4.1-9.2
		c0-4-1.4-7.1-4.2-9.4s-6.8-3.4-11.8-3.4H150.1z"/>
	<path class="st3" d="M245.4,844.7V693.3h54.5v102.3h52.9v49.1H245.4z"/>
	<path class="st3" d="M349.4,844.7l54-151.4H464l52.9,151.4h-58.5l-4.9-19h-41l-4.7,19H349.4z M421.6,789.6h22.6l-4.7-17.2
		c-2.3-8.7-3.8-15.4-4.7-20.1c-0.8-4.7-1.3-9.1-1.5-13.2h-0.9c-0.2,4.1-0.7,8.5-1.5,13.2s-2.4,11.4-4.7,20.1L421.6,789.6z"/>
	<path class="st3" d="M525.3,844.7V693.3h53.3l47.1,79.2c-0.6-3.5-1.1-7.4-1.3-11.7s-0.4-9.9-0.4-16.8v-50.8h52.4v151.4h-53.8
		l-46.5-78.6c0.6,3.4,1,7,1.2,10.9c0.3,3.9,0.4,8.3,0.4,13.1v54.6L525.3,844.7L525.3,844.7z"/>
	<path class="st3" d="M704.3,844.7V693.3h101.2v41h-47.9v14.6H801v38.8h-43.4v15.9h49.1v41L704.3,844.7L704.3,844.7z"/>
	<path class="st3" d="M848.3,844.7V742.8H818v-49.5h115v49.5h-30.3v101.9H848.3z"/>
	<path class="st1" d="M81.4,923.4l6.7-16.3c3,2.1,5.7,3.6,8,4.6c2.3,1,4.5,1.5,6.6,1.5c1.4,0,2.6-0.3,3.4-0.8s1.2-1.3,1.2-2.2
		c0-1.6-2-2.8-6.2-3.7c-1.3-0.3-2.4-0.5-3.1-0.7c-4.3-1.1-7.7-2.9-10-5.6s-3.5-6.1-3.5-10.1c0-6.2,2.2-11.3,6.7-15.2
		c4.5-3.9,10.3-5.9,17.6-5.9c3.3,0,6.6,0.4,9.8,1.3s6.5,2.2,9.8,4l-6.4,15.2c-2-1.5-4-2.6-6.1-3.4c-2-0.8-4-1.2-5.9-1.2
		c-1.5,0-2.6,0.2-3.4,0.7c-0.8,0.5-1.2,1.2-1.2,2c0,1.6,2.9,3.1,8.7,4.3c0.9,0.2,1.6,0.4,2.2,0.5c4,0.9,7.2,2.7,9.5,5.5
		s3.5,6.1,3.5,10.1c0,6.4-2.3,11.7-7,15.8c-4.7,4.1-10.7,6.1-18.1,6.1c-3.8,0-7.6-0.5-11.4-1.6C89.1,927.2,85.2,925.6,81.4,923.4z"
		/>
	<path class="st1" d="M196.6,899.4c0,4.3-0.8,8.2-2.3,11.9c-1.5,3.7-3.7,7-6.6,9.8c-2.9,2.8-6.3,5-10.1,6.5s-7.8,2.3-12.1,2.3
		c-4.3,0-8.4-0.8-12.2-2.3c-3.8-1.5-7.2-3.7-10.1-6.6c-2.9-2.8-5.1-6-6.5-9.7c-1.5-3.7-2.2-7.6-2.2-12s0.7-8.3,2.2-12
		s3.7-6.9,6.5-9.7c2.9-2.9,6.3-5,10-6.5c3.8-1.5,7.9-2.2,12.2-2.2s8.5,0.8,12.2,2.2s7.2,3.7,10.1,6.5c2.9,2.8,5,6.1,6.5,9.8
		C195.8,891.1,196.6,895.1,196.6,899.4z M165.4,910.4c2.9,0,5.3-1,7.1-3c1.8-2,2.7-4.7,2.7-8c0-3.3-0.9-6-2.7-8c-1.8-2-4.2-3-7.1-3
		s-5.3,1-7.1,3.1s-2.7,4.7-2.7,8s0.9,6,2.7,8C160.1,909.4,162.5,910.4,165.4,910.4z"/>
	<path class="st1" d="M248.1,893.3c-1.9-1.8-3.8-3.2-5.8-4.1c-2-0.9-4.1-1.3-6.3-1.3c-3.4,0-6.2,1-8.2,3.2s-3.1,4.9-3.1,8.4
		c0,3.4,1,6.1,3,8.2s4.7,3.1,8,3.1c2,0,4.1-0.4,6.1-1.3s4.3-2.2,6.8-4.1l-0.7,21.9c-2.3,0.9-4.6,1.6-6.8,2.1
		c-2.3,0.5-4.6,0.7-6.8,0.7c-2.8,0-5.6-0.3-8.2-1c-2.6-0.6-5-1.5-7.1-2.7c-5.1-3-9-6.7-11.7-11.2c-2.6-4.5-4-9.7-4-15.6
		c0-4.3,0.8-8.4,2.2-12.1c1.5-3.7,3.7-7,6.5-9.8c2.9-2.9,6.2-5,10-6.5c3.8-1.5,7.9-2.2,12.3-2.2c2.4,0,4.7,0.2,7,0.7
		s4.5,1.2,6.7,2.2L248.1,893.3L248.1,893.3z"/>
	<path class="st1" d="M300.1,893.3c-1.9-1.8-3.8-3.2-5.8-4.1c-2-0.9-4.1-1.3-6.3-1.3c-3.4,0-6.2,1-8.2,3.2s-3.1,4.9-3.1,8.4
		c0,3.4,1,6.1,3,8.2s4.7,3.1,8,3.1c2,0,4.1-0.4,6.1-1.3s4.3-2.2,6.8-4.1l-0.7,21.9c-2.3,0.9-4.6,1.6-6.8,2.1
		c-2.3,0.5-4.6,0.7-6.8,0.7c-2.8,0-5.6-0.3-8.2-1c-2.6-0.6-5-1.5-7.1-2.7c-5.1-3-9-6.7-11.7-11.2c-2.6-4.5-4-9.7-4-15.6
		c0-4.3,0.8-8.4,2.2-12.1c1.5-3.7,3.7-7,6.5-9.8c2.9-2.9,6.2-5,10-6.5c3.8-1.5,7.9-2.2,12.3-2.2c2.4,0,4.7,0.2,7,0.7
		s4.5,1.2,6.7,2.2L300.1,893.3L300.1,893.3z"/>
	<path class="st1" d="M309.3,928.4v-58.2h38.9V886h-18.4v5.6h16.7v14.9h-16.7v6.1h18.9v15.8L309.3,928.4L309.3,928.4z"/>
	<path class="st1" d="M357.2,928.4v-58.2h26.3c7.6,0,13.5,1.7,17.5,5c4,3.4,6,8.2,6,14.5c0,4.1-1,7.5-3,10.2s-4.8,4.2-8.2,4.7
		l15.5,23.7h-23.4l-10.2-19.2v19.2H357.2z M377.7,885.2v11.4h3.3c2,0,3.5-0.5,4.6-1.5c1.1-1,1.6-2.3,1.6-4.2c0-1.8-0.5-3.3-1.6-4.3
		s-2.6-1.5-4.6-1.5L377.7,885.2L377.7,885.2z"/>
	<path class="st3" d="M435.6,928.4l20.7-58.2h23.3l20.3,58.2h-22.5l-1.9-7.3h-15.8l-1.8,7.3H435.6z M463.3,907.2h8.7l-1.8-6.6
		c-0.9-3.3-1.5-5.9-1.8-7.7c-0.3-1.8-0.5-3.5-0.6-5.1h-0.4c-0.1,1.6-0.3,3.3-0.6,5.1c-0.3,1.8-0.9,4.4-1.8,7.7L463.3,907.2z"/>
	<path class="st3" d="M503.1,928.4v-58.2h20.5l18.1,30.4c-0.2-1.3-0.4-2.8-0.5-4.5c-0.1-1.6-0.1-3.8-0.1-6.4v-19.5h20.1v58.2h-20.7
		l-17.9-30.2c0.2,1.3,0.4,2.7,0.5,4.2c0.1,1.5,0.2,3.2,0.2,5v21H503.1z"/>
	<path class="st3" d="M571.9,928.4v-58.2h16.9c5.4,0,10,0.3,13.8,0.9c3.8,0.6,6.9,1.5,9.3,2.8c5,2.7,8.9,6.2,11.6,10.5
		c2.7,4.4,4,9.3,4,14.9c0,5.6-1.3,10.5-4,14.9c-2.7,4.3-6.5,7.8-11.6,10.5c-2.5,1.3-5.6,2.2-9.4,2.8s-8.9,0.9-15.2,0.9L571.9,928.4
		L571.9,928.4z M592.6,910.6c4.7,0,8.2-1,10.3-2.8s3.3-4.7,3.3-8.5c0-3.8-1-6.6-3.1-8.5c-2.1-1.8-5.3-2.8-9.6-2.8h-0.9L592.6,910.6
		L592.6,910.6z"/>
	<path class="st2" d="M664.2,928.4v-58.2h25c8.8,0,15.2,1.7,19.3,5.1c4.1,3.4,6.1,8.8,6.1,16.1c0,6.9-1.8,11.9-5.5,15
		s-9.4,4.8-17.4,4.8h-6.6v17.2H664.2z M685.2,886.4v9.7h3.3c2,0,3.5-0.4,4.6-1.2s1.6-2,1.6-3.6s-0.5-2.7-1.6-3.6
		c-1.1-0.9-2.6-1.3-4.5-1.3H685.2z"/>
	<path class="st2" d="M710,928.4l20.7-58.2H754l20.3,58.2h-22.5l-1.9-7.3h-15.8l-1.8,7.3H710z M737.7,907.2h8.7l-1.8-6.6
		c-0.9-3.3-1.5-5.9-1.8-7.7c-0.3-1.8-0.5-3.5-0.6-5.1h-0.4c-0.1,1.6-0.3,3.3-0.6,5.1s-0.9,4.4-1.8,7.7L737.7,907.2z"/>
	<path class="st2" d="M777.6,928.4v-58.2h16.9c5.4,0,10,0.3,13.8,0.9c3.8,0.6,6.9,1.5,9.3,2.8c5,2.7,8.9,6.2,11.6,10.5
		c2.7,4.4,4,9.3,4,14.9c0,5.6-1.3,10.5-4,14.9c-2.7,4.3-6.5,7.8-11.6,10.5c-2.5,1.3-5.6,2.2-9.4,2.8s-8.9,0.9-15.2,0.9L777.6,928.4
		L777.6,928.4z M798.3,910.6c4.7,0,8.2-1,10.3-2.8s3.3-4.7,3.3-8.5c0-3.8-1-6.6-3.1-8.5c-2.1-1.8-5.3-2.8-9.6-2.8h-0.9L798.3,910.6
		L798.3,910.6z"/>
	<path class="st2" d="M841.9,928.4v-58.2h38.9V886h-18.4v5.6h16.7v14.9h-16.7v6.1h18.9v15.8L841.9,928.4L841.9,928.4z"/>
	<path class="st2" d="M889.8,928.4v-58.2h20.9v39.3H931v18.9H889.8z"/>
</g>
</svg>
