<?xml version="1.0" encoding="utf-8"?>
<!-- Generator: Adobe Illustrator 28.2.0, SVG Export Plug-In . SVG Version: 6.00 Build 0)  -->
<svg version="1.1" id="Livello_1" xmlns="http://www.w3.org/2000/svg" xmlns:xlink="http://www.w3.org/1999/xlink" x="0px" y="0px"
	 viewBox="0 0 912 338" style="enable-background:new 0 0 912 338;" xml:space="preserve">
<style type="text/css">
	.st0{fill:#FFFFFF;}
</style>
<g>
	<path class="st0" d="M253.1,108C253.1,108,253.1,108,253.1,108C253.1,108.1,253.1,108.1,253.1,108C253.1,108.1,253.1,108,253.1,108
		z"/>
	<g>
		<g>
			<path class="st0" d="M312.6,87.9c-9.4,1.4-18.5,4.1-26.9,7.8c-0.6-0.5-1.2-1.1-1.9-1.6c-2-1.6-4.3-2.9-6.8-3.6c0,0,0,0,0,0
				c-6.9-1.9-7.2-2.5-2.9-8.4c5.3-7.2,8.5-15,7-24c-3-18.3-15.5-28-31.7-33.7c-12.6-4.4-25,0-33,10.8c-1.5,2-2.9,4.1-4.7,6.6
				c-1.1,1.6-3.4,1.5-4.4-0.1c-5.1-8.1-10.4-14.9-19.4-17.6c-10.2-3-19.5-0.5-28.2,4.7c-9.3,5.5-16.6,12.8-20.2,23.3
				c-4.4,12.9,0.7,23.4,8.4,33.7c1,1.3,0.3,3.1-1.2,3.5c-3.3,0.9-6.1,1.6-8.9,2.5c-8.9,2.9-15.3,8.3-17.8,17.8c0,0-0.1,1.3-0.2,3
				c-0.4,5-0.1,10.1,1.1,15c0.2,1,0.5,2,0.8,2.9c5.3,18.8,19.3,26.4,38.1,21.5c6.9-1.8,7.5-1.4,6.7,5.9c-1,8.8,0.1,17.2,5.9,24.3
				c10.5,12.9,24.3,15.9,39.3,14.1c-1.9,3.8-3.8,7.5-5.7,11.1c-0.4,0.7-0.7,1.4-1.1,2.1c-21.8-0.1-45-12.7-46.7-13.7
				c0,0-2-1.3-2.3-1.5c-14.4-8.8-26.8-21.2-35.8-36.8c-6.4-11.1-10.6-22.9-12.5-34.9c-0.1-0.4-0.3-1.4-0.4-2.7l0-0.1l0-0.6
				c-0.4-3.7-0.8-9.8-1.2-13.8c-0.1-0.8-0.1-1.6-0.2-2.4c-0.1-1.4-0.1-2.7,0-4.1c0-0.6,0.1-1.3,0.1-1.9c1.1-13.6,4.8-26.5,10.6-38.1
				c6.6-13.1,15.8-24.7,27-33.9c0,0,0,0,0,0c20.2-15.9,43.4-23.6,66.2-23.7c35.7,0.3,70.1,19,90.1,53.6
				C283,24.9,252.1,4.1,216.1,1.5C249.9,3.4,282,22,301,54.8c0.2,0.3,0.4,0.6,0.5,0.9C306.8,65.7,310.7,76.5,312.6,87.9z"/>
		</g>
		<g>
			<path class="st0" d="M258.5,91.3c-12.5,11-20,25.9-21.3,41.7c-0.2,2.7-1,5.3-2.3,7.6c-0.9,1.5-1.8,3.1-2.6,4.6
				c-8.8-3.6-18.1-5.4-27.5-5.4c-10.4,0-20.9,2.2-30.5,6.8c0.8-4,1.2-8,1.2-12c0-16.7-7-33-19.7-45.2c11.1-1.3,21.6-5.1,30.5-11
				c8.9-5.9,16.4-13.7,21.5-23.1C217.4,74.3,236.4,87.8,258.5,91.3z"/>
		</g>
	</g>
	<g>
		<path class="st0" d="M435.1,220.7c-0.8,3.4-1.7,6.8-2.8,10.1c-24.4-0.1-49.5-14-64.6-38.3c-19.1-30.9-16-68.6,5.6-90.8
			c18,7.5,34,20.1,45.6,36.8c2.5,3.6,4.8,7.5,6.9,11.5c0,0,0,0.1,0,0.1c0.7,1.4,1.4,2.8,2.1,4.3c2,4.2,3.6,8.5,4.9,12.9
			C438.5,185,439,203.4,435.1,220.7z"/>
		<path class="st0" d="M425.4,247.2c-2.9,5.6-6.4,10.9-10.3,15.8c-4.9,6.2-10.6,12-17,17c0,0,0,0-0.1,0c-0.6,0.5-1.1,0.9-1.7,1.3
			c-0.9,0.7-1.9,1.4-2.9,2.1c-0.7,0.5-1.4,1-2.1,1.4c-0.7,0.5-1.4,0.9-2.1,1.4c-0.7,0.5-1.4,0.9-2.1,1.3c-2.9,1.7-5.9,3.4-9,4.8
			c-0.4,0.2-0.8,0.4-1.2,0.6c-0.3,0.1-0.5,0.2-0.8,0.4c0,0-0.1,0-0.1,0.1c-0.2,0.1-0.3,0.1-0.5,0.2c0,0,0,0,0,0
			c-0.5,0.2-0.9,0.4-1.4,0.6c-0.1,0-0.2,0.1-0.2,0.1c0,0-0.1,0-0.1,0c-0.7,0.3-1.4,0.6-2.1,0.9c-0.5,0.2-0.9,0.4-1.4,0.5
			c-0.5,0.2-0.9,0.4-1.4,0.5c-0.5,0.2-1,0.4-1.5,0.5c-0.1,0-0.1,0-0.2,0.1c-0.4,0.1-0.8,0.3-1.2,0.4c-0.1,0-0.2,0.1-0.4,0.1
			c-0.4,0.1-0.9,0.3-1.3,0.4c-0.1,0-0.2,0.1-0.3,0.1c-0.4,0.1-0.8,0.2-1.1,0.3c-0.3,0.1-0.6,0.2-0.9,0.3c-0.2,0-0.4,0.1-0.5,0.1
			c-0.3,0.1-0.6,0.2-0.9,0.2c-0.4,0.1-0.8,0.2-1.2,0.3c-0.1,0-0.3,0.1-0.5,0.1c-0.1,0-0.2,0-0.3,0.1c-0.1,0-0.2,0-0.4,0.1
			c0,0-0.1,0-0.1,0c-0.8,0.2-1.7,0.4-2.5,0.6c-0.1,0-0.2,0-0.2,0c-0.7,0.1-1.3,0.3-2,0.4c-0.1,0-0.1,0-0.2,0c-0.1,0-0.3,0-0.5,0.1
			c-0.1,0-0.2,0-0.4,0.1c-0.5,0.1-1.1,0.2-1.6,0.3c0,0-0.1,0-0.2,0c-0.6,0.1-1.2,0.2-1.8,0.3c-0.1,0-0.3,0-0.4,0.1c0,0-0.1,0-0.1,0
			c-0.1,0-0.2,0-0.4,0c-1.5,0.2-3,0.4-4.6,0.6c-0.8,0.1-1.7,0.1-2.5,0.2c-0.7,0-1.4,0.1-2,0.1c-8.4,0.4-16.7-0.1-24.9-1.7
			c24.2-29,25.7-74.3,1.1-110c-14-20.2-34.2-34.4-57-40c-5.6-1.4-11.1-2.1-16.6-2.4c0.1-0.1,0.2-0.3,0.3-0.5
			c10.4-19,26.8-35,47.9-44.8c1.2-0.6,2.4-1.1,3.6-1.6c1.4-0.6,2.9-1.2,4.3-1.7c0.4-0.1,0.8-0.3,1.2-0.4c6.2-2.2,12.4-3.8,18.7-4.7
			c1.6-0.3,3.2-0.5,4.9-0.6c11.5-1.2,23-0.5,34,2c-21.9,28-24,70.3-2.5,105.1C370.4,228.4,397.7,244.7,425.4,247.2z"/>
		<path class="st0" d="M365.3,297.5c-0.2,0.1-0.5,0.2-0.7,0.2c-0.2,0.1-0.4,0.1-0.6,0.2C364.5,297.8,364.9,297.7,365.3,297.5z"/>
		<path class="st0" d="M375.3,293.7c-0.5,0.2-1.1,0.5-1.6,0.7c0.1,0,0.1-0.1,0.2-0.1C374.4,294.1,374.9,293.9,375.3,293.7z"/>
		<path class="st0" d="M343,302.2c0.5,0,1.1-0.1,1.7-0.2c-0.7,0.1-1.3,0.1-2,0.2C342.7,302.2,342.9,302.2,343,302.2z"/>
		<path class="st0" d="M365.3,297.5c-0.2,0.1-0.5,0.2-0.7,0.2c-0.2,0.1-0.4,0.1-0.6,0.2C364.5,297.8,364.9,297.7,365.3,297.5z"/>
		<path class="st0" d="M371.6,295.3c-0.5,0.2-1,0.4-1.5,0.6C370.5,295.7,371,295.5,371.6,295.3C371.5,295.3,371.5,295.3,371.6,295.3
			z"/>
		<path class="st0" d="M387,287.6c-2.9,1.8-5.9,3.4-9,4.8C381.1,291,384.1,289.4,387,287.6z"/>
		<path class="st0" d="M314.4,242.4c-0.4-11.3-3.2-22.7-8.6-33.8c-0.5-1.1-1.1-2.1-1.6-3.2c-1-1.7-2.1-3.5-3.3-5.1
			c-11.6-16.9-28.4-28.6-47.1-33.2c-6.4-1.6-12.8-2.2-19-1.9c-1,2.6-2.1,5.2-3.2,7.8c-1.1,2.7-2.3,5.4-3.5,8.1c0,0,0,0,0,0
			c-1.4,3.1-2.8,6.2-4.2,9.2c0,0,0,0,0,0c-1.2,2.6-2.5,5.2-3.8,7.8c-2.3,4.8-4.7,9.5-7.1,14c-0.9,1.8-1.9,3.6-2.8,5.3
			c-12.9,23.9-25.3,43-31.3,51.8c-2.4,3.5-5.4,6.5-9,8.8l-51.4,33.4c-2.2,1.4-2.8,4.3-1.4,6.5l9,14.3c1.5,2.3,4.5,2.9,6.8,1.3
			c10.1-7.2,36.7-25.9,54.1-36.4c10.1-6.1,63.3-4.8,91.4-3.7c0,0,0,0,0,0c4.9,0.2,9,0.4,12,0.5c0,0,0,0,0,0c3.4,0.2,5.4,0.3,5.4,0.3
			c0-0.2-0.1-0.4-0.2-0.5c0.2,0.1,0.3,0.1,0.3,0.1c7.2-8,12.3-17.2,15.4-27C313.6,259.1,314.7,250.8,314.4,242.4z M209.2,271.7
			l21-35.3v0l2.3-3.8v0l1.2-2l0,5.4v0c0.5,7.3,2.7,13.7,5.3,19c0,0,0,0.1,0,0.1c4.2,8.5,9.4,13.7,9.4,13.7L209.2,271.7z"/>
	</g>
	<path class="st0" d="M436.9,240.6c2.8-6.6,4.9-13.6,6.3-20.9c1.9-0.4,5.1-0.7,6.6-1.1c57.3-14.6,9.3-40.4-8.5-48.8
		c-2.9-10.8-7.5-20.9-13.3-30C458.1,153.3,562,206,436.9,240.6z"/>
	<path class="st0" d="M205.3,209.4c0,0.1-12.2,22.3-17.6,31.2c-89.1-19.5-143.3-56.7-143.3-56.7s-107.6-65.8,53.2-91.2
		c0.3-0.1-0.6,7.6,0,15.5c0.6,7.6,2.6,15.5,2.6,15.5s-122.2,12.9-27.3,48.2c23.2,8.6,85,23.9,85.3,23.9
		C173.8,204.2,189,209.1,205.3,209.4z"/>
</g>
<g>
	<path class="st0" d="M519.2,183.1v-69.6h29.9c10.5,0,18.2,2,23.1,6.1c4.9,4.1,7.3,10.5,7.3,19.3c0,8.2-2.2,14.2-6.6,18
		s-11.3,5.7-20.8,5.7h-7.8v20.5H519.2z M544.4,132.9v11.6h3.9c2.4,0,4.2-0.5,5.5-1.5c1.3-1,1.9-2.4,1.9-4.3s-0.7-3.3-2-4.3
		s-3.1-1.6-5.4-1.6L544.4,132.9L544.4,132.9z"/>
	<path class="st0" d="M588.2,183.1v-69.6h25.1v47h24.3v22.6H588.2z"/>
	<path class="st0" d="M636,183.1l24.8-69.6h27.9l24.3,69.6h-26.9l-2.2-8.8H665l-2.1,8.8H636z M669.2,157.8h10.4l-2.1-7.9
		c-1-4-1.8-7.1-2.1-9.2c-0.4-2.2-0.6-4.2-0.7-6.1h-0.4c-0.1,1.9-0.3,3.9-0.7,6.1s-1.1,5.2-2.1,9.2L669.2,157.8z"/>
	<path class="st0" d="M716.9,183.1v-69.6h24.5l21.6,36.4c-0.3-1.6-0.5-3.4-0.6-5.4c-0.1-2-0.2-4.5-0.2-7.7v-23.4h24.1v69.6h-24.7
		L740.3,147c0.2,1.6,0.4,3.2,0.6,5c0.1,1.8,0.2,3.8,0.2,6v25.1L716.9,183.1L716.9,183.1z"/>
	<path class="st0" d="M799.2,183.1v-69.6h46.5v18.9h-22v6.7h20v17.8h-20v7.3h22.6v18.9L799.2,183.1L799.2,183.1z"/>
	<path class="st0" d="M865.4,183.1v-46.8h-13.9v-22.8h52.9v22.8h-13.9v46.8H865.4z"/>
	<path class="st0" d="M512.8,219.4l3.1-7.5c1.4,1,2.6,1.7,3.7,2.1c1.1,0.4,2.1,0.7,3,0.7c0.7,0,1.2-0.1,1.5-0.4
		c0.4-0.2,0.6-0.6,0.6-1c0-0.7-0.9-1.3-2.8-1.7c-0.6-0.1-1.1-0.2-1.4-0.3c-2-0.5-3.5-1.4-4.6-2.6s-1.6-2.8-1.6-4.6
		c0-2.9,1-5.2,3.1-7c2.1-1.8,4.8-2.7,8.1-2.7c1.5,0,3,0.2,4.5,0.6c1.5,0.4,3,1,4.5,1.8l-2.9,7c-0.9-0.7-1.8-1.2-2.8-1.6
		c-0.9-0.4-1.8-0.5-2.7-0.5c-0.7,0-1.2,0.1-1.5,0.3c-0.4,0.2-0.5,0.5-0.5,0.9c0,0.8,1.3,1.4,4,2c0.4,0.1,0.8,0.2,1,0.2
		c1.8,0.4,3.3,1.3,4.3,2.5s1.6,2.8,1.6,4.6c0,3-1.1,5.4-3.2,7.2c-2.1,1.9-4.9,2.8-8.3,2.8c-1.8,0-3.5-0.2-5.3-0.8
		C516.3,221.1,514.5,220.4,512.8,219.4z"/>
	<path class="st0" d="M565.7,208.3c0,2-0.3,3.8-1,5.5s-1.7,3.2-3,4.5c-1.3,1.3-2.9,2.3-4.6,3c-1.8,0.7-3.6,1-5.6,1
		c-2,0-3.9-0.4-5.6-1c-1.7-0.7-3.3-1.7-4.6-3c-1.3-1.3-2.3-2.8-3-4.5c-0.7-1.7-1-3.5-1-5.5c0-2,0.3-3.8,1-5.5c0.7-1.7,1.7-3.2,3-4.5
		c1.3-1.3,2.9-2.3,4.6-3c1.7-0.7,3.6-1,5.6-1s3.9,0.3,5.6,1c1.7,0.7,3.3,1.7,4.6,3c1.3,1.3,2.3,2.8,3,4.5
		C565.4,204.5,565.7,206.3,565.7,208.3z M551.4,213.4c1.3,0,2.4-0.5,3.3-1.4s1.2-2.1,1.2-3.7c0-1.5-0.4-2.8-1.2-3.7
		s-1.9-1.4-3.3-1.4c-1.3,0-2.4,0.5-3.3,1.4s-1.2,2.2-1.2,3.7s0.4,2.7,1.2,3.7C549,212.9,550.1,213.4,551.4,213.4z"/>
	<path class="st0" d="M589.4,205.5c-0.9-0.8-1.8-1.5-2.7-1.9c-0.9-0.4-1.9-0.6-2.9-0.6c-1.6,0-2.8,0.5-3.8,1.4c-1,1-1.4,2.3-1.4,3.9
		c0,1.6,0.5,2.8,1.4,3.8c0.9,0.9,2.1,1.4,3.7,1.4c0.9,0,1.9-0.2,2.8-0.6c1-0.4,2-1,3.1-1.9l-0.3,10.1c-1,0.4-2.1,0.8-3.1,1
		s-2.1,0.3-3.1,0.3c-1.3,0-2.6-0.1-3.8-0.4c-1.2-0.3-2.3-0.7-3.3-1.2c-2.4-1.4-4.2-3.1-5.4-5.2c-1.2-2.1-1.8-4.5-1.8-7.2
		c0-2,0.3-3.9,1-5.6s1.7-3.2,3-4.5c1.3-1.3,2.9-2.3,4.6-3c1.8-0.7,3.6-1,5.7-1c1.1,0,2.2,0.1,3.2,0.3c1,0.2,2.1,0.6,3.1,1
		L589.4,205.5L589.4,205.5z"/>
	<path class="st0" d="M613.3,205.5c-0.9-0.8-1.8-1.5-2.7-1.9c-0.9-0.4-1.9-0.6-2.9-0.6c-1.6,0-2.8,0.5-3.8,1.4c-1,1-1.4,2.3-1.4,3.9
		c0,1.6,0.5,2.8,1.4,3.8c0.9,0.9,2.1,1.4,3.7,1.4c0.9,0,1.9-0.2,2.8-0.6c1-0.4,2-1,3.1-1.9l-0.3,10.1c-1,0.4-2.1,0.8-3.1,1
		s-2.1,0.3-3.1,0.3c-1.3,0-2.6-0.1-3.8-0.4c-1.2-0.3-2.3-0.7-3.3-1.2c-2.4-1.4-4.2-3.1-5.4-5.2c-1.2-2.1-1.8-4.5-1.8-7.2
		c0-2,0.3-3.9,1-5.6s1.7-3.2,3-4.5c1.3-1.3,2.9-2.3,4.6-3c1.8-0.7,3.6-1,5.7-1c1.1,0,2.2,0.1,3.2,0.3c1,0.2,2.1,0.6,3.1,1
		L613.3,205.5L613.3,205.5z"/>
	<path class="st0" d="M617.6,221.6v-26.7h17.9v7.2H627v2.6h7.7v6.9H627v2.8h8.7v7.2H617.6z"/>
	<path class="st0" d="M639.6,221.6v-26.7h12.1c3.5,0,6.2,0.8,8,2.3s2.8,3.8,2.8,6.7c0,1.9-0.5,3.5-1.4,4.7c-0.9,1.2-2.2,1.9-3.8,2.2
		l7.1,10.9h-10.8l-4.7-8.8v8.8L639.6,221.6L639.6,221.6z M649,201.8v5.2h1.5c0.9,0,1.6-0.2,2.1-0.7c0.5-0.4,0.7-1.1,0.7-1.9
		c0-0.9-0.2-1.5-0.7-2c-0.5-0.5-1.2-0.7-2.1-0.7H649z"/>
	<path class="st0" d="M675.6,221.6l9.5-26.7h10.7l9.3,26.7h-10.3l-0.9-3.4h-7.2l-0.8,3.4H675.6z M688.4,211.9h4l-0.8-3
		c-0.4-1.5-0.7-2.7-0.8-3.5c-0.2-0.8-0.2-1.6-0.3-2.3h-0.2c0,0.7-0.1,1.5-0.3,2.3c-0.2,0.8-0.4,2-0.8,3.5L688.4,211.9z"/>
	<path class="st0" d="M706.7,221.6v-26.7h9.4l8.3,14c-0.1-0.6-0.2-1.3-0.2-2.1s-0.1-1.7-0.1-3v-9h9.3v26.7h-9.5l-8.2-13.9
		c0.1,0.6,0.2,1.2,0.2,1.9c0,0.7,0.1,1.5,0.1,2.3v9.6L706.7,221.6L706.7,221.6z"/>
	<path class="st0" d="M738.3,221.6v-26.7h7.8c2.5,0,4.6,0.1,6.3,0.4s3.2,0.7,4.3,1.3c2.3,1.2,4.1,2.8,5.3,4.8s1.8,4.3,1.8,6.9
		c0,2.6-0.6,4.8-1.8,6.8c-1.2,2-3,3.6-5.3,4.8c-1.1,0.6-2.6,1-4.3,1.3s-4.1,0.4-7,0.4L738.3,221.6L738.3,221.6z M747.9,213.5
		c2.2,0,3.8-0.4,4.8-1.3s1.5-2.1,1.5-3.9c0-1.7-0.5-3-1.4-3.9c-1-0.9-2.4-1.3-4.4-1.3h-0.4L747.9,213.5L747.9,213.5z"/>
	<path class="st0" d="M780.7,221.6v-26.7h11.5c4,0,7,0.8,8.9,2.3s2.8,4,2.8,7.4c0,3.1-0.8,5.5-2.5,6.9c-1.7,1.5-4.3,2.2-8,2.2h-3
		v7.9L780.7,221.6L780.7,221.6z M790.4,202.3v4.5h1.5c0.9,0,1.6-0.2,2.1-0.6s0.7-0.9,0.7-1.6s-0.2-1.3-0.8-1.6
		c-0.5-0.4-1.2-0.6-2.1-0.6L790.4,202.3L790.4,202.3z"/>
	<path class="st0" d="M801.8,221.6l9.5-26.7h10.7l9.3,26.7h-10.3l-0.9-3.4H813l-0.8,3.4H801.8z M814.6,211.9h4l-0.8-3
		c-0.4-1.5-0.7-2.7-0.8-3.5c-0.2-0.8-0.2-1.6-0.3-2.3h-0.2c0,0.7-0.1,1.5-0.3,2.3c-0.2,0.8-0.4,2-0.8,3.5L814.6,211.9z"/>
	<path class="st0" d="M832.9,221.6v-26.7h7.8c2.5,0,4.6,0.1,6.3,0.4s3.2,0.7,4.3,1.3c2.3,1.2,4.1,2.8,5.3,4.8s1.8,4.3,1.8,6.9
		c0,2.6-0.6,4.8-1.8,6.8c-1.2,2-3,3.6-5.3,4.8c-1.1,0.6-2.6,1-4.3,1.3s-4.1,0.4-7,0.4L832.9,221.6L832.9,221.6z M842.4,213.5
		c2.2,0,3.8-0.4,4.8-1.3s1.5-2.1,1.5-3.9c0-1.7-0.5-3-1.4-3.9c-1-0.9-2.4-1.3-4.4-1.3h-0.4L842.4,213.5L842.4,213.5z"/>
	<path class="st0" d="M862.5,221.6v-26.7h17.9v7.2h-8.5v2.6h7.7v6.9h-7.7v2.8h8.7v7.2H862.5z"/>
	<path class="st0" d="M884.5,221.6v-26.7h9.6V213h9.3v8.7L884.5,221.6L884.5,221.6z"/>
</g>
</svg>
